# xmcd
#
# Track frame offsets: 
#        150
#        14437
#        26871
#        38586
#        51897
#        61917
#        73183
#        82627
#        96044
#        106454
#        116944
#        126478
#        134964
#        144817
#        155511
#        166256
#        179393
#        188480
#        198698
#        207558
#
# Disc length: 2930 seconds
#
# Revision: 0
# Processed by: cddbd v1.5.2PL0 Copyright (c) Steve Scherf et al.
# Submitted via: ExactAudioCopy v0.95b4
#
DISCID=260b7014
DTITLE=Various Artist - Rhythm and Blues Goes Rock'n'Roll Box2 CD 14
DYEAR=2002
DGENRE=R&B
TTITLE0=Louis Jordan - Boogie woogie came to town
TTITLE1=Amos Milburn - Let me go home whiskey
TTITLE2=Nappy Brown - Little by little
TTITLE3=Chet Oliver - Goin' back to Chicago
TTITLE4=Doctor Ross - Numbers boogie
TTITLE5=Jerry McCain - The jigs up
TTITLE6=Etta James - That's all
TTITLE7=Mister Ruffin - Bring it on back
TTITLE8=Hutto and His Hawks - Combination boogie
TTITLE9=Louisiana Red - I done woke up
TTITLE10=Jimmy Wilson - Jumpin' from six to six
TTITLE11=Jo Jo Williams - Rock and roll boogie
TTITLE12=Hound Dog Taylor - Alley music
TTITLE13=Eddie Hope - A fool no more
TTITLE14=Sonny Terry - I love you baby
TTITLE15=Tarheel Slim - Number nine train
TTITLE16=Rosco Gordon - I'm gonna shake it
TTITLE17=Willie Egans - Wow wow
TTITLE18=Bunker Hill - The girl can't dance
TTITLE19=Bob Gaddy - Slow down baby
EXTD=
EXTT0=
EXTT1=
EXTT2=
EXTT3=
EXTT4=
EXTT5=
EXTT6=
EXTT7=
EXTT8=
EXTT9=
EXTT10=
EXTT11=
EXTT12=
EXTT13=
EXTT14=
EXTT15=
EXTT16=
EXTT17=
EXTT18=
EXTT19=
PLAYORDER=
